<svg xmlns="http://www.w3.org/2000/svg" width="239" height="43" fill="none"><path fill="#fff" fill-rule="evenodd" d="M0 15v16h5a4 4 0 0 1 4 4v5h12l15-15V9h-5a4 4 0 0 1-4-4V0H15L0 15Zm17 15h-7V19l9-9h7v11l-9 9Z" clip-rule="evenodd"/><path fill="#fff" d="M230.568 12.246c2.526 0 4.557.78 6.092 2.34 1.56 1.535 2.34 3.69 2.34 6.463V33.12h-5.2V21.755c0-1.61-.409-2.836-1.226-3.678-.817-.866-1.931-1.3-3.343-1.3-1.411 0-2.538.434-3.38 1.3-.817.842-1.225 2.068-1.225 3.677V33.12h-5.2V21.755c0-1.61-.409-2.836-1.226-3.678-.817-.866-1.932-1.3-3.343-1.3-1.436 0-2.575.434-3.417 1.3-.817.842-1.226 2.068-1.226 3.677V33.12h-5.2V12.543h5.2v2.489a6.96 6.96 0 0 1 2.563-2.043c1.065-.496 2.228-.743 3.491-.743 1.61 0 3.046.346 4.309 1.04a7.037 7.037 0 0 1 2.934 2.897c.669-1.189 1.635-2.142 2.897-2.86a8.407 8.407 0 0 1 4.16-1.077Zm-29.385.297V33.12h-5.237v-2.6c-.668.892-1.548 1.597-2.637 2.117-1.065.496-2.229.743-3.492.743-1.609 0-3.033-.334-4.271-1.003-1.238-.693-2.216-1.696-2.934-3.008-.694-1.337-1.04-2.922-1.04-4.755V12.543h5.2v11.329c0 1.634.408 2.897 1.225 3.788.818.867 1.932 1.3 3.343 1.3 1.437 0 2.563-.433 3.38-1.3.818-.891 1.226-2.154 1.226-3.788v-11.33h5.237Zm-30.491 20.912c-1.684 0-3.195-.298-4.532-.892-1.337-.619-2.402-1.449-3.194-2.489a6.327 6.327 0 0 1-1.263-3.454h5.237c.099.793.483 1.449 1.152 1.969.693.52 1.547.78 2.562.78.991 0 1.759-.198 2.303-.595.57-.396.855-.903.855-1.522 0-.669-.347-1.164-1.04-1.486-.669-.347-1.746-.718-3.232-1.114-1.535-.372-2.798-.756-3.788-1.152a6.732 6.732 0 0 1-2.526-1.82c-.694-.817-1.04-1.919-1.04-3.306 0-1.139.322-2.179.966-3.12.668-.94 1.609-1.683 2.822-2.228 1.239-.545 2.687-.817 4.346-.817 2.452 0 4.408.619 5.869 1.857 1.461 1.213 2.266 2.86 2.414 4.94h-4.977c-.074-.817-.421-1.461-1.04-1.932-.594-.495-1.399-.743-2.414-.743-.941 0-1.672.174-2.192.52-.495.347-.743.83-.743 1.45 0 .693.347 1.225 1.04 1.596.694.347 1.771.706 3.232 1.077 1.485.372 2.711.756 3.677 1.152a6.28 6.28 0 0 1 2.489 1.857c.718.817 1.089 1.907 1.114 3.269 0 1.188-.334 2.253-1.003 3.194-.644.94-1.585 1.684-2.823 2.229-1.213.52-2.637.78-4.271.78Zm-26.548-17.941c.669-.94 1.585-1.72 2.749-2.34 1.188-.643 2.538-.965 4.048-.965 1.758 0 3.343.433 4.755 1.3 1.436.866 2.562 2.104 3.38 3.714.842 1.585 1.262 3.43 1.262 5.534 0 2.105-.42 3.975-1.262 5.609-.818 1.61-1.944 2.86-3.38 3.751-1.412.892-2.997 1.338-4.755 1.338-1.51 0-2.847-.31-4.011-.929-1.139-.62-2.068-1.4-2.786-2.34v12.74h-5.2V12.543h5.2v2.971Zm10.883 7.243c0-1.238-.26-2.303-.78-3.194-.495-.916-1.164-1.61-2.006-2.08a5.264 5.264 0 0 0-2.674-.706c-.941 0-1.832.248-2.674.743-.818.47-1.486 1.164-2.006 2.08-.495.916-.743 1.993-.743 3.232 0 1.238.248 2.315.743 3.231.52.916 1.188 1.622 2.006 2.117a5.4 5.4 0 0 0 2.674.706c.966 0 1.857-.248 2.674-.743.842-.495 1.511-1.2 2.006-2.117.52-.916.78-2.006.78-3.269Zm-22.484-12.666c-.916 0-1.683-.284-2.302-.854-.595-.594-.892-1.325-.892-2.191 0-.867.297-1.585.892-2.155.619-.594 1.386-.891 2.302-.891.917 0 1.672.297 2.266.891.619.57.929 1.288.929 2.155 0 .866-.31 1.597-.929 2.191-.594.57-1.349.854-2.266.854Zm2.563 2.452V33.12h-5.2V12.543h5.2Zm-18.449 20.912c-1.981 0-3.763-.434-5.348-1.3-1.585-.892-2.835-2.142-3.752-3.752-.891-1.61-1.337-3.467-1.337-5.571 0-2.105.458-3.962 1.374-5.572.941-1.61 2.217-2.848 3.826-3.714 1.61-.892 3.405-1.337 5.386-1.337 1.981 0 3.776.445 5.386 1.337a9.428 9.428 0 0 1 3.788 3.714c.941 1.61 1.412 3.467 1.412 5.572 0 2.104-.483 3.962-1.449 5.571a9.867 9.867 0 0 1-3.863 3.752c-1.609.866-3.417 1.3-5.423 1.3Zm0-4.532c.941 0 1.82-.223 2.638-.668.842-.471 1.51-1.164 2.005-2.08.496-.917.743-2.031.743-3.343 0-1.957-.52-3.455-1.56-4.495-1.015-1.064-2.266-1.597-3.751-1.597-1.486 0-2.736.533-3.752 1.597-.99 1.04-1.485 2.538-1.485 4.495 0 1.956.482 3.466 1.448 4.531.991 1.04 2.229 1.56 3.714 1.56Zm-22.386 4.532c-1.98 0-3.763-.434-5.348-1.3-1.585-.892-2.835-2.142-3.752-3.752-.891-1.61-1.337-3.467-1.337-5.571 0-2.105.458-3.962 1.374-5.572.941-1.61 2.217-2.848 3.826-3.714 1.61-.892 3.405-1.337 5.386-1.337 1.981 0 3.776.445 5.386 1.337a9.427 9.427 0 0 1 3.788 3.714c.941 1.61 1.412 3.467 1.412 5.572 0 2.104-.483 3.962-1.449 5.571a9.868 9.868 0 0 1-3.863 3.752c-1.61.866-3.417 1.3-5.423 1.3Zm0-4.532c.941 0 1.82-.223 2.638-.668.841-.471 1.51-1.164 2.005-2.08.496-.917.743-2.031.743-3.343 0-1.957-.52-3.455-1.56-4.495-1.015-1.064-2.266-1.597-3.751-1.597-1.486 0-2.737.533-3.752 1.597-.99 1.04-1.485 2.538-1.485 4.495 0 1.956.482 3.466 1.448 4.531.99 1.04 2.229 1.56 3.714 1.56Zm-22.386 4.532c-1.98 0-3.763-.434-5.348-1.3-1.585-.892-2.836-2.142-3.752-3.752-.891-1.61-1.337-3.467-1.337-5.571 0-2.105.458-3.962 1.374-5.572.941-1.61 2.217-2.848 3.826-3.714 1.61-.892 3.405-1.337 5.386-1.337 1.98 0 3.776.445 5.386 1.337a9.427 9.427 0 0 1 3.788 3.714c.941 1.61 1.412 3.467 1.412 5.572 0 2.104-.483 3.962-1.449 5.571a9.87 9.87 0 0 1-3.863 3.752c-1.61.866-3.417 1.3-5.423 1.3Zm0-4.532c.941 0 1.82-.223 2.638-.668.842-.471 1.51-1.164 2.005-2.08.495-.917.743-2.031.743-3.343 0-1.957-.52-3.455-1.56-4.495-1.015-1.064-2.266-1.597-3.751-1.597-1.486 0-2.736.533-3.752 1.597-.99 1.04-1.486 2.538-1.486 4.495 0 1.956.483 3.466 1.45 4.531.99 1.04 2.228 1.56 3.713 1.56Zm-19.685.074h8.543v4.123H47V7.194h5.2v21.803Z"/><path fill="#fff" d="M85.206 35.884c1.317 3.917 5.02 6.74 9.38 6.74h.543c5.465 0 9.895-4.43 9.895-9.895v-.56H99.66v.56a4.53 4.53 0 0 1-4.53 4.53h-.543a4.517 4.517 0 0 1-3.25-1.375h-6.13Z"/></svg>